<svg width="214" height="16" viewBox="0 0 214 16" fill="none" xmlns="http://www.w3.org/2000/svg">
<path d="M7.77406 15.2C6.7074 15.2 5.71406 15.0267 4.79406 14.68C3.8874 14.32 3.09406 13.82 2.41406 13.18C1.7474 12.5267 1.2274 11.76 0.854063 10.88C0.480729 10 0.294063 9.04 0.294063 8C0.294063 6.96 0.480729 6 0.854063 5.12C1.2274 4.24 1.75406 3.48 2.43406 2.84C3.11406 2.18667 3.9074 1.68667 4.81406 1.34C5.72073 0.979999 6.71406 0.799999 7.79406 0.799999C8.94073 0.799999 9.9874 0.999999 10.9341 1.4C11.8807 1.78667 12.6807 2.36667 13.3341 3.14L11.6541 4.72C11.1474 4.17333 10.5807 3.76667 9.95406 3.5C9.3274 3.22 8.6474 3.08 7.91406 3.08C7.18073 3.08 6.5074 3.2 5.89406 3.44C5.29406 3.68 4.7674 4.02 4.31406 4.46C3.87406 4.9 3.5274 5.42 3.27406 6.02C3.03406 6.62 2.91406 7.28 2.91406 8C2.91406 8.72 3.03406 9.38 3.27406 9.98C3.5274 10.58 3.87406 11.1 4.31406 11.54C4.7674 11.98 5.29406 12.32 5.89406 12.56C6.5074 12.8 7.18073 12.92 7.91406 12.92C8.6474 12.92 9.3274 12.7867 9.95406 12.52C10.5807 12.24 11.1474 11.82 11.6541 11.26L13.3341 12.86C12.6807 13.62 11.8807 14.2 10.9341 14.6C9.9874 15 8.93406 15.2 7.77406 15.2ZM28.0923 15.2C26.999 15.2 25.9923 15.02 25.0723 14.66C24.1523 14.3 23.3523 13.8 22.6723 13.16C21.9923 12.5067 21.4657 11.7467 21.0923 10.88C20.719 10 20.5323 9.04 20.5323 8C20.5323 6.96 20.719 6.00667 21.0923 5.14C21.4657 4.26 21.9923 3.5 22.6723 2.86C23.3523 2.20667 24.1523 1.7 25.0723 1.34C25.9923 0.979999 26.9923 0.799999 28.0723 0.799999C29.1657 0.799999 30.1657 0.979999 31.0723 1.34C31.9923 1.7 32.7923 2.20667 33.4723 2.86C34.1523 3.5 34.679 4.26 35.0523 5.14C35.4257 6.00667 35.6123 6.96 35.6123 8C35.6123 9.04 35.4257 10 35.0523 10.88C34.679 11.76 34.1523 12.52 33.4723 13.16C32.7923 13.8 31.9923 14.3 31.0723 14.66C30.1657 15.02 29.1723 15.2 28.0923 15.2ZM28.0723 12.92C28.779 12.92 29.4323 12.8 30.0323 12.56C30.6323 12.32 31.1523 11.98 31.5923 11.54C32.0323 11.0867 32.3723 10.5667 32.6123 9.98C32.8657 9.38 32.9923 8.72 32.9923 8C32.9923 7.28 32.8657 6.62667 32.6123 6.04C32.3723 5.44 32.0323 4.92 31.5923 4.48C31.1523 4.02667 30.6323 3.68 30.0323 3.44C29.4323 3.2 28.779 3.08 28.0723 3.08C27.3657 3.08 26.7123 3.2 26.1123 3.44C25.5257 3.68 25.0057 4.02667 24.5523 4.48C24.1123 4.92 23.7657 5.44 23.5123 6.04C23.2723 6.62667 23.1523 7.28 23.1523 8C23.1523 8.70667 23.2723 9.36 23.5123 9.96C23.7657 10.56 24.1123 11.0867 24.5523 11.54C24.9923 11.98 25.5123 12.32 26.1123 12.56C26.7123 12.8 27.3657 12.92 28.0723 12.92ZM44.3683 15V0.999999H46.5083L52.6283 11.22H51.5083L57.5283 0.999999H59.6683L59.6883 15H57.2283L57.2083 4.86H57.7283L52.6083 13.4H51.4483L46.2483 4.86H46.8483V15H44.3683ZM69.4698 15V0.999999H72.0698V15H69.4698ZM81.8566 15V0.999999H83.9966L92.7766 11.78H91.7166V0.999999H94.2966V15H92.1566L83.3766 4.22H84.4366V15H81.8566ZM110.588 15.2C109.495 15.2 108.488 15.0267 107.568 14.68C106.661 14.32 105.868 13.82 105.188 13.18C104.508 12.5267 103.981 11.76 103.608 10.88C103.235 10 103.048 9.04 103.048 8C103.048 6.96 103.235 6 103.608 5.12C103.981 4.24 104.508 3.48 105.188 2.84C105.881 2.18667 106.688 1.68667 107.608 1.34C108.528 0.979999 109.535 0.799999 110.628 0.799999C111.815 0.799999 112.881 0.993332 113.828 1.38C114.788 1.76667 115.595 2.33333 116.248 3.08L114.608 4.68C114.061 4.13333 113.468 3.73333 112.828 3.48C112.201 3.21333 111.508 3.08 110.748 3.08C110.015 3.08 109.335 3.2 108.708 3.44C108.081 3.68 107.541 4.02 107.088 4.46C106.635 4.9 106.281 5.42 106.028 6.02C105.788 6.62 105.668 7.28 105.668 8C105.668 8.70667 105.788 9.36 106.028 9.96C106.281 10.56 106.635 11.0867 107.088 11.54C107.541 11.98 108.075 12.32 108.688 12.56C109.301 12.8 109.981 12.92 110.728 12.92C111.421 12.92 112.088 12.8133 112.728 12.6C113.381 12.3733 114.001 12 114.588 11.48L116.068 13.42C115.335 14.0067 114.481 14.4533 113.508 14.76C112.548 15.0533 111.575 15.2 110.588 15.2ZM113.608 13.08V7.84H116.068V13.42L113.608 13.08ZM141.365 15.2C140.271 15.2 139.225 15.0467 138.225 14.74C137.225 14.42 136.431 14.0133 135.845 13.52L136.745 11.5C137.305 11.94 137.998 12.3067 138.825 12.6C139.651 12.8933 140.498 13.04 141.365 13.04C142.098 13.04 142.691 12.96 143.145 12.8C143.598 12.64 143.931 12.4267 144.145 12.16C144.358 11.88 144.465 11.5667 144.465 11.22C144.465 10.7933 144.311 10.4533 144.005 10.2C143.698 9.93333 143.298 9.72667 142.805 9.58C142.325 9.42 141.785 9.27333 141.185 9.14C140.598 9.00667 140.005 8.85333 139.405 8.68C138.818 8.49333 138.278 8.26 137.785 7.98C137.305 7.68667 136.911 7.3 136.605 6.82C136.298 6.34 136.145 5.72667 136.145 4.98C136.145 4.22 136.345 3.52667 136.745 2.9C137.158 2.26 137.778 1.75333 138.605 1.38C139.445 0.993332 140.505 0.799999 141.785 0.799999C142.625 0.799999 143.458 0.906666 144.285 1.12C145.111 1.33333 145.831 1.64 146.445 2.04L145.625 4.06C144.998 3.68667 144.351 3.41333 143.685 3.24C143.018 3.05333 142.378 2.96 141.765 2.96C141.045 2.96 140.458 3.04667 140.005 3.22C139.565 3.39333 139.238 3.62 139.025 3.9C138.825 4.18 138.725 4.5 138.725 4.86C138.725 5.28667 138.871 5.63333 139.165 5.9C139.471 6.15333 139.865 6.35333 140.345 6.5C140.838 6.64667 141.385 6.79333 141.985 6.94C142.585 7.07333 143.178 7.22667 143.765 7.4C144.365 7.57333 144.905 7.8 145.385 8.08C145.878 8.36 146.271 8.74 146.565 9.22C146.871 9.7 147.025 10.3067 147.025 11.04C147.025 11.7867 146.818 12.48 146.405 13.12C146.005 13.7467 145.385 14.2533 144.545 14.64C143.705 15.0133 142.645 15.2 141.365 15.2ZM162.163 15.2C161.069 15.2 160.063 15.02 159.143 14.66C158.223 14.3 157.423 13.8 156.743 13.16C156.063 12.5067 155.536 11.7467 155.163 10.88C154.789 10 154.603 9.04 154.603 8C154.603 6.96 154.789 6.00667 155.163 5.14C155.536 4.26 156.063 3.5 156.743 2.86C157.423 2.20667 158.223 1.7 159.143 1.34C160.063 0.979999 161.063 0.799999 162.143 0.799999C163.236 0.799999 164.236 0.979999 165.143 1.34C166.063 1.7 166.863 2.20667 167.543 2.86C168.223 3.5 168.749 4.26 169.123 5.14C169.496 6.00667 169.683 6.96 169.683 8C169.683 9.04 169.496 10 169.123 10.88C168.749 11.76 168.223 12.52 167.543 13.16C166.863 13.8 166.063 14.3 165.143 14.66C164.236 15.02 163.243 15.2 162.163 15.2ZM162.143 12.92C162.849 12.92 163.503 12.8 164.103 12.56C164.703 12.32 165.223 11.98 165.663 11.54C166.103 11.0867 166.443 10.5667 166.683 9.98C166.936 9.38 167.063 8.72 167.063 8C167.063 7.28 166.936 6.62667 166.683 6.04C166.443 5.44 166.103 4.92 165.663 4.48C165.223 4.02667 164.703 3.68 164.103 3.44C163.503 3.2 162.849 3.08 162.143 3.08C161.436 3.08 160.783 3.2 160.183 3.44C159.596 3.68 159.076 4.02667 158.623 4.48C158.183 4.92 157.836 5.44 157.583 6.04C157.343 6.62667 157.223 7.28 157.223 8C157.223 8.70667 157.343 9.36 157.583 9.96C157.836 10.56 158.183 11.0867 158.623 11.54C159.063 11.98 159.583 12.32 160.183 12.56C160.783 12.8 161.436 12.92 162.143 12.92ZM184.999 15.2C183.905 15.2 182.899 15.02 181.979 14.66C181.059 14.3 180.259 13.8 179.579 13.16C178.899 12.5067 178.372 11.7467 177.999 10.88C177.625 10 177.439 9.04 177.439 8C177.439 6.96 177.625 6.00667 177.999 5.14C178.372 4.26 178.899 3.5 179.579 2.86C180.259 2.20667 181.059 1.7 181.979 1.34C182.899 0.979999 183.899 0.799999 184.979 0.799999C186.072 0.799999 187.072 0.979999 187.979 1.34C188.899 1.7 189.699 2.20667 190.379 2.86C191.059 3.5 191.585 4.26 191.959 5.14C192.332 6.00667 192.519 6.96 192.519 8C192.519 9.04 192.332 10 191.959 10.88C191.585 11.76 191.059 12.52 190.379 13.16C189.699 13.8 188.899 14.3 187.979 14.66C187.072 15.02 186.079 15.2 184.999 15.2ZM184.979 12.92C185.685 12.92 186.339 12.8 186.939 12.56C187.539 12.32 188.059 11.98 188.499 11.54C188.939 11.0867 189.279 10.5667 189.519 9.98C189.772 9.38 189.899 8.72 189.899 8C189.899 7.28 189.772 6.62667 189.519 6.04C189.279 5.44 188.939 4.92 188.499 4.48C188.059 4.02667 187.539 3.68 186.939 3.44C186.339 3.2 185.685 3.08 184.979 3.08C184.272 3.08 183.619 3.2 183.019 3.44C182.432 3.68 181.912 4.02667 181.459 4.48C181.019 4.92 180.672 5.44 180.419 6.04C180.179 6.62667 180.059 7.28 180.059 8C180.059 8.70667 180.179 9.36 180.419 9.96C180.672 10.56 181.019 11.0867 181.459 11.54C181.899 11.98 182.419 12.32 183.019 12.56C183.619 12.8 184.272 12.92 184.979 12.92ZM201.275 15V0.999999H203.415L212.195 11.78H211.135V0.999999H213.715V15H211.575L202.795 4.22H203.855V15H201.275Z" fill="white"/>
</svg>
