<svg width="442" height="182" viewBox="0 0 442 182" fill="none" xmlns="http://www.w3.org/2000/svg">
<path d="M58.9973 67.3463C58.9973 72.9487 59.1841 77.0105 59.5576 79.5316C59.9311 81.9593 60.6781 83.7334 61.7986 84.8539C63.0124 85.881 64.9733 86.5813 67.6811 86.9548L55.916 99C52.2744 98.253 49.5666 96.8991 47.7925 94.9382C46.1118 92.9774 44.9913 90.3629 44.431 87.0948C43.8708 83.7334 43.5907 78.9713 43.5907 72.8086V47.8778H22.4415V75.7499C22.4415 80.4186 22.7216 84.5737 23.2819 88.2153C23.9355 91.7635 25.0093 95.125 26.5032 98.2997V99H2.97304V98.2997C4.46703 95.125 5.49414 91.7635 6.05438 88.2153C6.708 84.5737 7.03481 80.4186 7.03481 75.7499V33.1715C7.03481 26.5419 6.80137 21.453 6.3345 17.9048C5.96101 14.3566 4.84052 11.9289 2.97304 10.6217V9.78131L22.4415 0.957482V35.6925L43.5907 35.8326V33.1715C43.5907 26.5419 43.3572 21.453 42.8904 17.9048C42.5169 14.3566 41.3964 11.9289 39.5289 10.6217V9.92137L58.297 0.957482H58.9973V67.3463ZM120.823 67.3463C120.823 72.8553 121.01 76.8704 121.383 79.3915C121.757 81.8192 122.504 83.5933 123.624 84.7138C124.838 85.8343 126.799 86.5813 129.507 86.9548L117.742 99C114.661 98.0663 112.233 96.8524 110.459 95.3584C108.778 93.7711 107.564 91.6702 106.817 89.0557L94.0716 99C89.8698 98.0663 86.3683 96.8057 83.5671 95.2184C80.7658 93.631 78.5249 91.1566 76.8441 87.7951C75.2568 84.4337 74.4631 79.8584 74.4631 74.0692C74.4631 71.4547 74.2297 69.1671 73.7628 67.2062C73.2959 65.152 72.2221 63.7047 70.5414 62.8643V62.164L103.316 46.3372C101.728 43.6293 99.3005 41.6218 96.0325 40.3145C92.8577 38.9139 89.543 38.2136 86.0881 38.2136C83.3803 38.2136 81.046 38.5871 79.0851 39.3341L78.3848 37.9335C78.6649 37.8401 80.3457 37.0932 83.427 35.6925C86.6017 34.2919 90.8035 32.051 96.0325 28.9696C102.755 29.7166 107.938 31.3974 111.579 34.0118C115.221 36.5329 117.648 39.7543 118.862 43.676C120.17 47.5977 120.823 52.3598 120.823 57.9622V67.3463ZM104.296 86.9548C104.67 86.9548 104.903 86.768 104.996 86.3945C105.183 85.9277 105.276 84.8072 105.276 83.0331C105.37 81.1656 105.417 78.6912 105.417 75.6099V57.9622C104.95 56.0947 104.156 54.6941 103.035 53.7604C101.915 52.8266 100.654 52.3598 99.2539 52.3598C96.9195 52.3598 94.7719 53.5269 92.8111 55.8613C90.8502 58.1023 89.8698 60.9969 89.8698 64.5451V74.0692C89.8698 78.3644 91.2704 81.5858 94.0716 83.7334C96.9662 85.881 100.374 86.9548 104.296 86.9548ZM150.507 64.405C150.507 70.1008 151.768 74.5361 154.289 77.7108C156.903 80.7921 160.078 82.9864 163.813 84.2936C167.548 85.5075 172.03 86.3945 177.259 86.9548L165.494 99C157.744 97.3193 150.741 94.2379 144.485 89.756C138.229 85.1807 135.101 78.5511 135.101 69.8674V52.3598C135.101 51.0525 135.427 50.0254 136.081 49.2784C136.735 48.4381 139.302 46.3372 143.784 42.9757C148.266 39.5209 154.289 34.8522 161.852 28.9696C165.4 29.7166 168.809 31.3974 172.077 34.0118C175.438 36.5329 177.959 39.5209 179.64 42.9757L166.334 51.5194C165.214 48.2513 163.206 45.6369 160.312 43.676C157.51 41.6218 154.756 40.7347 152.048 41.0149C151.488 41.1082 151.114 41.295 150.928 41.5751C150.834 41.7618 150.741 42.789 150.647 44.6564C150.554 46.4305 150.507 48.9983 150.507 52.3598V64.405ZM242.303 99H218.773L218.493 98.2997C218.679 95.2184 218.306 91.9036 217.372 88.3554C216.532 84.8072 215.131 80.6054 213.17 75.7499L209.949 67.9065C207.895 69.774 206.167 71.408 204.767 72.8086V75.7499C204.767 80.4186 205.047 84.5737 205.607 88.2153C206.261 91.7635 207.334 95.125 208.828 98.2997V99H185.298V98.2997C186.792 95.125 187.819 91.7635 188.38 88.2153C189.033 84.5737 189.36 80.4186 189.36 75.7499V52.3598V51.9396V33.1715C189.36 26.5419 189.127 21.453 188.66 17.9048C188.286 14.3566 187.166 11.9289 185.298 10.6217V9.78131L204.767 0.957482V37.7935L216.112 28.9696C219.847 29.81 223.208 31.7708 226.196 34.8522C229.184 37.9335 231.005 41.7618 231.658 46.3372C231.752 47.3643 231.565 48.2046 231.098 48.8583C230.725 49.4185 229.417 50.6324 227.176 52.4998L221.014 57.6821L229.697 78.4111C232.872 85.881 236.981 92.5105 242.023 98.2997L242.303 99ZM204.767 68.1866C212.05 62.3041 215.691 56.7017 215.691 51.3794C215.691 49.2318 215.131 47.3643 214.011 45.7769C212.984 44.1896 211.723 42.9757 210.229 42.1353C208.735 41.295 207.428 40.9215 206.307 41.0149C205.747 41.1082 205.374 41.295 205.187 41.5751C205.093 41.7618 205 42.789 204.907 44.6564C204.813 46.4305 204.767 48.9983 204.767 52.3598V68.1866ZM295.623 67.3463C295.623 72.9487 295.81 77.0105 296.184 79.5316C296.557 81.9593 297.304 83.7334 298.425 84.8539C299.638 85.881 301.599 86.5813 304.307 86.9548L292.542 99C289.367 98.3464 286.94 97.2726 285.259 95.7786C283.578 94.2846 282.364 92.1837 281.617 89.4759L268.872 99C261.869 97.506 255.893 94.2379 250.944 89.1957C246.089 84.1536 243.661 76.3102 243.661 65.6655V33.1715C243.661 26.5419 243.427 21.453 242.961 17.9048C242.587 14.3566 241.467 11.9289 239.599 10.6217V9.78131L259.068 0.957482V65.6655C259.068 70.8945 260.141 75.1897 262.289 78.5511C264.53 81.8192 267.144 84.1069 270.132 85.4141C273.214 86.7213 276.062 87.2349 278.676 86.9548C279.236 86.8614 279.563 86.7213 279.656 86.5346C279.843 86.2545 279.983 85.2274 280.077 83.4533C280.17 81.5858 280.217 78.9713 280.217 75.6099V33.1715C280.217 26.5419 279.983 21.453 279.516 17.9048C279.143 14.3566 278.022 11.9289 276.155 10.6217V9.92137L294.923 0.957482H295.623V67.3463ZM364.782 12.8626H346.014V85.6942C349.001 86.5346 351.709 86.9548 354.137 86.9548C354.791 86.9548 355.631 86.8147 356.658 86.5346C357.779 86.1611 358.666 85.7876 359.319 85.4141L360.16 85.6942C358.946 87.0015 357.499 88.3554 355.818 89.756C354.137 91.0632 351.476 93.1174 347.834 95.9187C347.087 96.4789 346.387 97.0391 345.733 97.5994C345.08 98.0663 344.473 98.5331 343.913 99C336.443 98.253 329.766 95.6852 323.884 91.2967C318.001 86.8147 313.426 81.2123 310.158 74.4894C306.89 67.7665 305.256 60.7167 305.256 53.3402C305.256 45.2167 307.403 37.56 311.699 30.3702C315.994 23.1805 322.437 17.3446 331.027 12.8626H305.116L310.438 0.957482H370.104L364.782 12.8626ZM332.007 15.6639C328.179 19.1187 325.238 23.554 323.184 28.9696C321.223 34.2919 320.242 39.9877 320.242 46.057C320.242 51.9396 321.223 57.6354 323.184 63.1445C325.238 68.6535 328.179 73.3689 332.007 77.2906V15.6639ZM403.771 0.817423C415.443 6.13973 424.22 13.0961 430.102 21.6865C436.078 30.2769 439.066 39.3808 439.066 48.9983C439.066 56.4682 437.339 63.6113 433.884 70.4276C430.429 77.1505 425.527 82.893 419.178 87.6551L416.377 89.8961C411.148 94.0045 406.759 97.0391 403.211 99H372.958V98.2997C374.452 95.125 375.479 91.7635 376.039 88.2153C376.693 84.5737 377.019 80.4186 377.019 75.7499V33.1715C377.019 26.5419 376.786 21.453 376.319 17.9048C375.946 14.3566 374.825 11.9289 372.958 10.6217V9.78131L392.426 0.957482V9.64125L403.771 0.817423ZM413.575 86.9548C415.536 86.9548 417.31 85.8343 418.898 83.5933C420.578 81.259 421.886 78.1776 422.819 74.3493C423.753 70.4276 424.22 66.1791 424.22 61.6038C424.22 51.5194 421.886 41.9019 417.217 32.7513C412.642 23.6006 405.452 16.9711 395.648 12.8626C395.087 12.5825 394.62 12.4425 394.247 12.4425C393.5 12.4425 392.986 13.2361 392.706 14.8235C392.52 16.4109 392.426 19.5389 392.426 24.2076V69.8674C392.426 75.0963 392.846 78.9246 393.687 81.3523C394.62 83.6867 396.021 85.2274 397.889 85.9744C399.756 86.628 402.604 86.9548 406.432 86.9548H413.575Z" fill="white"/>
<path d="M73.7005 160.395L70.7817 166.931H50.7306V166.614C51.4074 165.176 51.8728 163.653 52.1266 162.045C52.4227 160.395 52.5707 158.513 52.5707 156.398V137.108C52.5707 134.105 52.465 131.799 52.2535 130.192C52.0843 128.584 51.5767 127.485 50.7306 126.892V126.512L59.5505 122.514V156.398C59.5505 158.344 59.8467 159.697 60.4389 160.459C61.0311 161.178 62.0041 161.538 63.3577 161.538L67.736 161.601C69.1742 161.601 70.3375 161.516 71.2259 161.347C72.1565 161.136 72.8122 160.755 73.1929 160.205L73.7005 160.395ZM95.8822 151.131C95.9245 152.612 96.0514 153.775 96.2629 154.621C96.5167 155.467 96.982 156.144 97.6589 156.652V156.969L83.7627 166.931C81.0554 166.339 78.898 164.964 77.2905 162.807C75.6831 160.649 74.8793 157.625 74.8793 153.733V151.004C74.837 149.524 74.689 148.361 74.4352 147.515C74.2237 146.668 73.7795 145.992 73.1027 145.484V145.167L86.9988 135.205C89.7061 135.797 91.8635 137.172 93.471 139.329C95.0785 141.486 95.8822 144.511 95.8822 148.403V151.131ZM81.8591 153.733C81.8591 156.482 82.4937 158.513 83.7627 159.824C85.0318 161.136 86.5123 161.686 88.2044 161.474C88.4582 161.432 88.6063 161.368 88.6486 161.284C88.7332 161.157 88.7966 160.692 88.8389 159.888C88.8812 159.042 88.9024 157.857 88.9024 156.334V148.403C88.9024 145.653 88.2679 143.623 86.9988 142.311C85.7298 141 84.2492 140.45 82.5571 140.662C82.3033 140.704 82.1341 140.789 82.0495 140.915C82.0072 141 81.9649 141.465 81.9226 142.311C81.8803 143.115 81.8591 144.278 81.8591 145.801V153.733ZM97.6435 145.167C97.6435 144.025 98.1511 142.967 99.1664 141.994C100.182 140.979 102.085 139.477 104.877 137.489L108.05 135.205C109.657 135.585 111.244 136.368 112.809 137.552C114.374 138.695 115.579 140.027 116.426 141.55L110.588 145.421C109.996 143.94 109.023 142.756 107.669 141.867C106.358 140.937 105.089 140.535 103.862 140.662C103.777 140.662 103.693 140.704 103.608 140.789C103.523 140.873 103.481 141 103.481 141.169C103.481 141.931 104.433 143.2 106.337 144.976C108.409 146.922 110.757 149.016 113.38 151.258C115.199 152.823 116.404 153.944 116.997 154.621C117.631 155.298 117.948 155.954 117.948 156.588C117.948 157.646 117.293 158.767 115.981 159.951C114.67 161.093 112.745 162.511 110.207 164.203C108.515 165.345 107.225 166.254 106.337 166.931C104.729 166.55 103.143 165.789 101.578 164.647C100.012 163.462 98.8068 162.109 97.9608 160.586L103.798 156.715C104.348 158.111 105.237 159.253 106.463 160.142C107.69 161.03 108.896 161.474 110.08 161.474C111.011 161.474 111.476 161.241 111.476 160.776C111.476 160.269 110.969 159.507 109.953 158.492C108.938 157.434 107.479 156.059 105.575 154.367C102.91 151.998 100.922 150.116 99.6105 148.72C98.2992 147.282 97.6435 146.097 97.6435 145.167ZM128.534 148.974C128.534 152.273 128.787 154.79 129.295 156.525C129.845 158.217 130.564 159.338 131.452 159.888C132.341 160.438 133.462 160.713 134.815 160.713V161.03L127.201 166.931C125.424 165.662 124.155 164.329 123.394 162.934C122.675 161.495 122.188 159.422 121.935 156.715C121.723 154.008 121.596 149.503 121.554 143.2L116.731 143.136V141.423C119.312 139.731 121.406 137.785 123.013 135.585C124.621 133.343 126.122 130.848 127.518 128.098L128.216 126.765H128.534V137.743H135.894L133.356 143.263L128.534 143.2V148.974ZM153.711 132.793C152.315 132.793 151.216 132.349 150.412 131.461C149.608 130.53 149.206 129.452 149.206 128.225C149.206 127.04 149.608 126.004 150.412 125.116C151.216 124.185 152.315 123.72 153.711 123.72C155.107 123.72 156.186 124.164 156.948 125.052C157.751 125.941 158.153 126.998 158.153 128.225C158.153 129.452 157.751 130.53 156.948 131.461C156.186 132.349 155.107 132.793 153.711 132.793ZM158.026 156.398C158.026 158.513 158.153 160.395 158.407 162.045C158.703 163.653 159.19 165.176 159.866 166.614V166.931H149.206V166.614C149.883 165.176 150.348 163.653 150.602 162.045C150.898 160.395 151.046 158.513 151.046 156.398V149.799C151.046 146.795 150.941 144.49 150.729 142.882C150.56 141.275 150.052 140.175 149.206 139.583V139.202L158.026 135.205V156.398ZM182.71 152.591C182.71 154.96 182.816 156.736 183.027 157.921C183.281 159.105 183.662 159.951 184.169 160.459C184.719 160.966 185.544 161.305 186.644 161.474L181.314 166.931C179.664 166.466 178.437 165.789 177.634 164.901C176.872 164.012 176.365 162.849 176.111 161.411C175.857 159.93 175.73 157.815 175.73 155.065V148.403C175.73 145.653 175.096 143.623 173.826 142.311C172.557 141 171.077 140.45 169.385 140.662C169.131 140.704 168.962 140.789 168.877 140.915C168.835 141 168.793 141.465 168.75 142.311C168.708 143.115 168.687 144.278 168.687 145.801V156.398C168.687 158.513 168.814 160.395 169.068 162.045C169.364 163.653 169.85 165.176 170.527 166.614V166.931H159.867V166.614C160.544 165.176 161.009 163.653 161.263 162.045C161.559 160.395 161.707 158.513 161.707 156.398V149.799C161.707 146.795 161.601 144.49 161.39 142.882C161.221 141.275 160.713 140.175 159.867 139.583V139.202L168.687 135.205V139.202L173.826 135.205C176.534 135.797 178.691 137.172 180.299 139.329C181.906 141.444 182.71 144.448 182.71 148.339V152.591ZM211.766 148.974C211.766 152.273 212.02 154.79 212.527 156.525C213.077 158.217 213.796 159.338 214.685 159.888C215.573 160.438 216.694 160.713 218.048 160.713V161.03L210.433 166.931C208.657 165.662 207.388 164.329 206.626 162.934C205.907 161.495 205.42 159.422 205.167 156.715C204.955 154.008 204.828 149.503 204.786 143.2L199.964 143.136V141.423C202.544 139.731 204.638 137.785 206.245 135.585C207.853 133.343 209.355 130.848 210.751 128.098L211.448 126.765H211.766V137.743H219.126L216.588 143.263L211.766 143.2V148.974ZM240.035 152.591C240.035 155.087 240.12 156.906 240.289 158.048C240.458 159.148 240.797 159.951 241.304 160.459C241.854 160.966 242.743 161.305 243.97 161.474L238.639 166.931C236.99 166.466 235.763 165.789 234.959 164.901C234.198 164.012 233.69 162.849 233.436 161.411C233.183 159.93 233.056 157.815 233.056 155.065V148.403C233.056 145.822 232.675 143.771 231.913 142.248C231.194 140.683 230.221 139.9 228.995 139.9C228.318 139.9 227.556 140.154 226.71 140.662C226.414 140.873 226.224 141.254 226.139 141.804C226.055 142.354 226.012 143.686 226.012 145.801V156.398C226.012 158.513 226.139 160.395 226.393 162.045C226.689 163.653 227.176 165.176 227.853 166.614V166.931H217.192V166.614C217.869 165.176 218.335 163.653 218.588 162.045C218.885 160.395 219.033 158.513 219.033 156.398V137.108C219.033 134.105 218.927 131.799 218.715 130.192C218.546 128.584 218.038 127.485 217.192 126.892V126.512L226.012 122.514V139.012C226.012 139.308 226.118 139.435 226.33 139.393C226.583 139.308 227.176 138.948 228.106 138.314C229.291 137.51 230.941 136.474 233.056 135.205C235.551 135.755 237.328 137.045 238.386 139.075C239.486 141.106 240.035 144.194 240.035 148.339V152.591ZM250.944 151.258C250.944 153.839 251.515 155.848 252.657 157.286C253.842 158.682 255.28 159.676 256.972 160.269C258.664 160.818 260.694 161.22 263.063 161.474L257.733 166.931C254.222 166.17 251.05 164.774 248.215 162.743C245.381 160.67 243.964 157.667 243.964 153.733V145.801C243.964 145.209 244.112 144.744 244.408 144.405C244.704 144.025 245.868 143.073 247.898 141.55C249.929 139.985 252.657 137.87 256.084 135.205C257.691 135.543 259.235 136.305 260.716 137.489C262.238 138.631 263.381 139.985 264.142 141.55L250.944 150.56V151.258ZM251.642 140.662C251.388 140.704 251.219 140.789 251.134 140.915C251.092 141 251.05 141.465 251.007 142.311C250.965 143.115 250.944 144.278 250.944 145.801V148.784L257.606 144.278C256.972 143.094 256.084 142.184 254.941 141.55C253.799 140.873 252.699 140.577 251.642 140.662ZM301.604 135.205C301.604 138.208 301.626 140.281 301.668 141.423C301.752 142.565 301.901 143.432 302.112 144.025C302.366 144.617 302.789 145.124 303.381 145.547V145.865L289.485 155.827C288.258 155.531 287.201 155.192 286.312 154.812V156.398C286.312 159.148 286.439 161.157 286.693 162.426C286.947 163.653 287.433 165.049 288.152 166.614V166.931H277.492V166.614C278.169 165.176 278.635 163.653 278.888 162.045C279.184 160.395 279.333 158.513 279.333 156.398V137.108C279.333 134.105 279.227 131.799 279.015 130.192C278.846 128.584 278.338 127.485 277.492 126.892V126.512L286.312 122.514V126.512L291.452 122.514C294.117 123.191 296.465 124.566 298.495 126.639C300.568 128.669 301.604 131.524 301.604 135.205ZM286.312 140.725C286.312 143.136 286.714 145.082 287.518 146.563C288.322 148.043 289.295 149.08 290.437 149.672C291.621 150.264 292.784 150.497 293.927 150.37C294.18 150.328 294.329 150.264 294.371 150.18C294.455 150.053 294.519 149.587 294.561 148.784C294.603 147.938 294.625 146.753 294.625 145.23V135.205C294.625 133.597 294.223 132.244 293.419 131.144C292.615 130.044 291.621 129.24 290.437 128.732C289.252 128.183 288.152 127.908 287.137 127.908C287.053 127.908 286.905 127.908 286.693 127.908C286.524 127.865 286.418 128.309 286.376 129.24C286.333 130.171 286.312 131.44 286.312 133.047V140.725ZM326.176 152.591C326.176 155.087 326.261 156.906 326.43 158.048C326.599 159.148 326.937 159.951 327.445 160.459C327.995 160.966 328.883 161.305 330.11 161.474L324.78 166.931C323.384 166.508 322.284 165.958 321.48 165.281C320.719 164.562 320.169 163.61 319.831 162.426L314.057 166.931C312.153 166.508 310.567 165.937 309.298 165.218C308.029 164.499 307.013 163.378 306.252 161.855C305.533 160.332 305.173 158.259 305.173 155.636C305.173 154.452 305.067 153.416 304.856 152.527C304.644 151.597 304.158 150.941 303.396 150.56V150.243L318.244 143.073C317.525 141.846 316.425 140.937 314.945 140.344C313.507 139.71 312.005 139.393 310.44 139.393C309.213 139.393 308.155 139.562 307.267 139.9L306.95 139.266C307.077 139.223 307.838 138.885 309.234 138.25C310.672 137.616 312.576 136.601 314.945 135.205C317.991 135.543 320.338 136.305 321.988 137.489C323.638 138.631 324.738 140.091 325.288 141.867C325.88 143.644 326.176 145.801 326.176 148.339V152.591ZM318.689 161.474C318.858 161.474 318.964 161.39 319.006 161.22C319.09 161.009 319.133 160.501 319.133 159.697C319.175 158.851 319.196 157.73 319.196 156.334V148.339C318.985 147.493 318.625 146.859 318.118 146.436C317.61 146.013 317.039 145.801 316.404 145.801C315.347 145.801 314.374 146.33 313.485 147.388C312.597 148.403 312.153 149.714 312.153 151.322V155.636C312.153 157.582 312.787 159.042 314.057 160.015C315.368 160.988 316.912 161.474 318.689 161.474ZM349.87 156.525V166.423C349.87 170.4 348.664 173.424 346.253 175.497C343.842 177.57 341.029 178.945 337.814 179.622L332.484 174.165C335.445 173.742 337.919 172.832 339.908 171.436C341.896 170.083 342.89 167.587 342.89 163.949V162.934L337.75 166.931C335.043 166.339 332.885 164.964 331.278 162.807C329.671 160.649 328.867 157.625 328.867 153.733V149.799V145.801C328.867 145.209 329.015 144.744 329.311 144.405C329.607 144.025 330.77 143.073 332.801 141.55C334.831 139.985 337.56 137.87 340.986 135.205C343.694 135.797 345.851 137.172 347.458 139.329C349.066 141.486 349.87 144.511 349.87 148.403V156.334V156.525ZM342.192 161.474C342.446 161.432 342.594 161.368 342.636 161.284C342.721 161.157 342.784 160.692 342.826 159.888C342.869 159.042 342.89 157.857 342.89 156.334V148.403C342.89 145.653 342.255 143.623 340.986 142.311C339.717 141 338.237 140.45 336.545 140.662C336.291 140.704 336.122 140.789 336.037 140.915C335.995 141 335.952 141.465 335.91 142.311C335.868 143.115 335.847 144.278 335.847 145.801V153.733C335.847 156.482 336.481 158.513 337.75 159.824C339.019 161.136 340.5 161.686 342.192 161.474ZM358.095 151.258C358.095 153.839 358.666 155.848 359.808 157.286C360.992 158.682 362.431 159.676 364.123 160.269C365.815 160.818 367.845 161.22 370.214 161.474L364.884 166.931C361.373 166.17 358.2 164.774 355.366 162.743C352.532 160.67 351.115 157.667 351.115 153.733V145.801C351.115 145.209 351.263 144.744 351.559 144.405C351.855 144.025 353.019 143.073 355.049 141.55C357.079 139.985 359.808 137.87 363.234 135.205C364.842 135.543 366.386 136.305 367.866 137.489C369.389 138.631 370.531 139.985 371.293 141.55L358.095 150.56V151.258ZM358.793 140.662C358.539 140.704 358.37 140.789 358.285 140.915C358.243 141 358.2 141.465 358.158 142.311C358.116 143.115 358.095 144.278 358.095 145.801V148.784L364.757 144.278C364.123 143.094 363.234 142.184 362.092 141.55C360.95 140.873 359.85 140.577 358.793 140.662ZM371.318 145.167C371.318 144.025 371.826 142.967 372.841 141.994C373.856 140.979 375.76 139.477 378.552 137.489L381.724 135.205C383.332 135.585 384.918 136.368 386.483 137.552C388.049 138.695 389.254 140.027 390.1 141.55L384.263 145.421C383.67 143.94 382.697 142.756 381.344 141.867C380.032 140.937 378.763 140.535 377.537 140.662C377.452 140.662 377.367 140.704 377.283 140.789C377.198 140.873 377.156 141 377.156 141.169C377.156 141.931 378.108 143.2 380.011 144.976C382.084 146.922 384.432 149.016 387.054 151.258C388.873 152.823 390.079 153.944 390.671 154.621C391.306 155.298 391.623 155.954 391.623 156.588C391.623 157.646 390.967 158.767 389.656 159.951C388.345 161.093 386.42 162.511 383.882 164.203C382.19 165.345 380.9 166.254 380.011 166.931C378.404 166.55 376.817 165.789 375.252 164.647C373.687 163.462 372.481 162.109 371.635 160.586L377.473 156.715C378.023 158.111 378.911 159.253 380.138 160.142C381.365 161.03 382.57 161.474 383.755 161.474C384.686 161.474 385.151 161.241 385.151 160.776C385.151 160.269 384.643 159.507 383.628 158.492C382.613 157.434 381.153 156.059 379.25 154.367C376.585 151.998 374.597 150.116 373.285 148.72C371.974 147.282 371.318 146.097 371.318 145.167Z" fill="white"/>
</svg>
